Coordinates
version=1
nRows=17
nColumns=36
inDegrees=yes

Units are S.I. units (second, meters, Newtons, ...)
If the header above contains a line with 'inDegrees', this indicates whether rotational values are in degrees (yes) or radians (no).

endheader
time	pelvis_tilt	pelvis_list	pelvis_rotation	pelvis_tx	pelvis_ty	pelvis_tz	hip_flexion_r	hip_adduction_r	hip_rotation_r	knee_angle_r	knee_angle_r_beta	ankle_angle_r	subtalar_angle_r	mtp_angle_r	hip_flexion_l	hip_adduction_l	hip_rotation_l	knee_angle_l	knee_angle_l_beta	ankle_angle_l	subtalar_angle_l	mtp_angle_l	lumbar_extension	lumbar_bending	lumbar_rotation	arm_flex_r	arm_add_r	arm_rot_r	elbow_flex_r	pro_sup_r	arm_flex_l	arm_add_l	arm_rot_l	elbow_flex_l	pro_sup_l
      1.48750000	     -6.29177705	      0.78988009	     -2.00110874	     -1.04077738	      1.20423198	     -0.09274336	     30.70391752	     -2.24308967	      3.44742334	     39.13569138	      0.68304667	      8.22828280	    -15.40657931	     -7.49999987	     29.34862273	      2.83207386	      2.43090585	     36.56087873	      0.63810771	      3.05042745	    -21.48316815	     -7.49999987	    -37.45739995	      2.74346759	     -2.40674200	     25.80127529	     -5.69757777	      9.00633915	    148.55340547	    111.88577916	     29.68394947	     -9.74535819	     21.19147787	    146.97766356	    102.35075930
      1.49166670	     -6.49222201	      0.82054537	     -2.05389100	     -1.03880264	      1.20370649	     -0.09210541	     30.93648072	     -2.22487080	      3.61153335	     39.13588994	      0.68305014	      8.05181010	    -15.68236954	     -7.49999987	     29.54139899	      2.89078184	      2.58923436	     36.49242124	      0.63691290	      2.80522876	    -21.79700357	     -7.49999987	    -37.17747726	      2.69998316	     -2.37720295	     25.59434762	     -5.67373060	      9.06933042	    148.51564093	    110.80835904	     29.42876469	     -9.75060181	     21.17158429	    146.96982024	    100.97784883
      1.49583330	     -6.48721608	      0.80291476	     -2.07851382	     -1.03903814	      1.20374118	     -0.09223732	     30.88210559	     -2.26899869	      3.46828307	     39.10148982	      0.68244974	      8.22230012	    -15.34490977	     -7.49999987	     29.49617307	      2.85182071	      2.53258227	     36.46944525	      0.63651190	      3.40829221	    -21.00796468	     -7.49999987	    -37.21422019	      2.78724980	     -2.33516621	     25.50358430	     -5.62710743	      9.14771601	    148.52748299	    112.09811279	     29.30781320	     -9.77145369	     20.96959495	    146.98586708	    102.06224908
      1.50000000	     -6.46318089	      0.79547017	     -2.16443254	     -1.03812305	      1.20586258	     -0.09133557	     30.70099808	     -2.21737768	      3.50984946	     38.85277055	      0.67810877	      8.25946076	    -15.19409869	     -7.49999987	     29.22620400	      2.79985831	      2.46317128	     36.15785157	      0.63107356	      3.63567655	    -20.66097661	     -7.49999987	    -37.28208265	      2.72963341	     -2.24003195	     25.32075485	     -5.58068604	      9.09284869	    148.55107330	    109.60309163	     29.22500267	     -9.76797392	     21.11080001	    146.88623519	     99.87981742
      1.50416670	     -6.56361854	      0.82896996	     -2.14327113	     -1.03685964	      1.20478812	     -0.09082574	     30.71421889	     -2.22047026	      3.51483314	     38.77646977	      0.67677707	      8.43097882	    -14.99543763	     -7.49999987	     29.15178110	      2.83313553	      2.46614415	     35.96197193	      0.62765482	      3.83599543	    -20.50006115	     -7.49999987	    -37.19976885	      2.73091158	     -2.35844245	     25.22783618	     -5.48980503	      9.36065702	    148.51548795	    112.01935117	     28.85243909	     -9.86980913	     20.79080862	    146.97314097	    102.18005660
      1.50833330	     -6.63268839	      0.83310376	     -2.14860013	     -1.03750899	      1.20258287	     -0.09003958	     30.74468798	     -2.18214736	      3.47653428	     38.74661261	      0.67625596	      8.69321284	    -14.89505935	     -7.49999987	     29.18411237	      2.77775161	      2.41078885	     36.01780799	      0.62862934	      4.15081164	    -20.40659213	     -7.49999987	    -37.13310905	      2.68392068	     -2.34416365	     25.17125851	     -5.45434256	      9.45937409	    148.53969213	    112.07920905	     28.71107469	     -9.97404719	     20.79871258	    147.00828981	    102.09662157
      1.51250000	     -6.62421277	      0.86311281	     -2.04255245	     -1.03801407	      1.20564571	     -0.09123572	     30.64947010	     -2.23701310	      3.46905777	     38.63098155	      0.67423782	      8.80969480	    -14.73636699	     -7.49999987	     29.14292031	      2.85336470	      2.47829588	     35.98234657	      0.62801042	      4.15472203	    -20.39696580	     -7.49999987	    -37.18546208	      2.67432755	     -2.37458386	     25.04173672	     -5.37067706	      9.27722299	    148.53100966	    111.84808123	     28.70554403	    -10.04724972	     20.99071515	    146.91936843	    102.01420940
      1.51666670	     -6.53235784	      0.92545912	     -1.98657174	     -1.03892937	      1.20543366	     -0.09144150	     30.53143868	     -2.33754180	      3.46558194	     38.56349713	      0.67306000	      9.02300790	    -14.51653558	     -7.49999987	     29.04791664	      2.90660019	      2.39593754	     35.97654907	      0.62790923	      4.36512127	    -20.13346844	     -7.49999987	    -37.36200729	      2.64400960	     -2.39081756	     25.10770001	     -5.45683844	      9.38960541	    148.52526993	    112.05345089	     28.78619432	    -10.02286164	     20.75084667	    146.91461540	    102.21746963
      1.52083330	     -6.56243624	      0.96595623	     -1.99395124	     -1.03910717	      1.20424703	     -0.09147451	     30.63968365	     -2.37495192	      3.52988696	     38.67404260	      0.67498938	      8.99043444	    -14.75504107	     -7.49999987	     29.16406720	      2.93346189	      2.36947239	     36.06197567	      0.62940021	      4.23533652	    -20.34332243	     -7.49999987	    -37.37476119	      2.60813295	     -2.42250389	     25.23082981	     -5.45908202	      9.43580313	    148.52330122	    112.01128057	     28.86665270	    -10.04587143	     20.75020185	    146.85220043	    101.86671583
      1.52500000	     -6.49080798	      0.97818162	     -1.93759369	     -1.03848477	      1.20549234	     -0.09148121	     30.51361644	     -2.43893290	      3.52421143	     38.60880296	      0.67385073	      8.88933598	    -14.76456808	     -7.49999987	     29.08970756	      2.92598627	      2.32460642	     36.03976617	      0.62901258	      4.21118218	    -20.27470012	     -7.49999987	    -37.49493299	      2.61763674	     -2.41871953	     25.27807914	     -5.48280985	      9.31402028	    148.50984962	    112.01405657	     29.02906381	    -10.02444677	     20.75109176	    146.76855496	    102.31995446
      1.52916670	     -6.53690543	      0.98474787	     -1.93603997	     -1.03851179	      1.20475901	     -0.09220868	     30.59037203	     -2.48868041	      3.52583919	     38.65492454	      0.67465571	      8.80945474	    -14.86825613	     -7.49999987	     29.09935357	      2.94936813	      2.35176869	     35.95928588	      0.62760794	      3.99336992	    -20.68285516	     -7.49999987	    -37.46806906	      2.66715437	     -2.40937539	     25.34657141	     -5.53278600	      9.30547090	    148.51295606	    111.62955783	     29.21335014	     -9.96194051	     20.93831961	    146.71504424	    102.03485519
      1.53333330	     -6.38316488	      0.96944830	     -1.91161291	     -1.03814352	      1.20520679	     -0.09121800	     30.36166308	     -2.49405764	      3.43351456	     38.57115270	      0.67319361	      8.78084859	    -14.80364790	     -7.49999987	     28.89025824	      2.89363048	      2.25308272	     35.89284680	      0.62644835	      3.98890239	    -20.64357009	     -7.49999987	    -37.70367506	      2.70156294	     -2.45120738	     25.50198666	     -5.47778429	      9.22201589	    148.52036435	    109.63632411	     29.39859540	     -9.97469829	     21.06416248	    146.71179316	    100.08612235
      1.53750000	     -6.48567297	      0.89024937	     -2.04975053	     -1.04043586	      1.20496323	     -0.09263532	     30.57115276	     -2.42534555	      3.42049212	     38.56408109	      0.67307019	      8.72373118	    -14.67208309	     -7.49999987	     29.04326596	      2.76448626	      2.08305594	     35.88917121	      0.62638420	      4.01447471	    -20.63696359	     -7.49999987	    -37.59031095	      2.76397559	     -2.45706338	     25.64032054	     -5.53438894	      9.32541986	    148.46108120	    112.07132159	     29.40619564	     -9.90558077	     20.69336501	    146.76800527	    102.36137264
      1.54166670	     -6.47266721	      0.88797544	     -2.15355237	     -1.04133194	      1.20642677	     -0.09340099	     30.63252133	     -2.44673390	      3.44674144	     38.51273797	      0.67217408	      8.51596382	    -14.61902013	     -7.49999987	     28.98241217	      2.79719333	      2.03971506	     35.64419031	      0.62210848	      3.86916175	    -20.75110922	     -7.49999987	    -37.69605621	      2.74366940	     -2.41723929	     25.82298424	     -5.62081027	      9.24382961	    148.45535938	    109.57860225	     29.53269315	     -9.81599843	     20.82497612	    146.67391915	    100.15868906
      1.54583330	     -6.57420963	      0.89699910	     -2.23648156	     -1.04079274	      1.20537502	     -0.09268416	     30.81511588	     -2.45967535	      3.47902985	     38.47241343	      0.67147029	      8.44979181	    -14.35944530	     -7.49999987	     29.17315746	      2.80479604	      1.98822926	     35.63228595	      0.62190071	      3.68551475	    -20.90457041	     -7.49999987	    -37.56826979	      2.73298693	     -2.56943857	     26.00903633	     -5.63046463	      9.41007546	    148.38972412	    112.15145284	     29.45177129	     -9.86334223	     20.50018109	    146.69625560	    102.02593326
      1.55000000	     -6.69706838	      0.89885149	     -2.28656455	     -1.04165850	      1.20564127	     -0.09344309	     30.99153659	     -2.45400707	      3.57050709	     38.46823031	      0.67139728	      8.20337100	    -14.52506098	     -7.49999987	     29.35705690	      2.85614316	      2.08567179	     35.62469029	      0.62176814	      3.35458052	    -21.21778836	     -7.49999987	    -37.46557063	      2.70922479	     -2.55261938	     26.19018709	     -5.70633608	      9.38832577	    148.35527169	    111.14780898	     29.55885961	     -9.80746221	     20.71252791	    146.54068167	    100.84460104
      1.55416670	     -6.93776041	      0.89698929	     -2.36814904	     -1.04091430	      1.20286091	     -0.09354269	     31.34959855	     -2.47139836	      3.58820012	     38.58835754	      0.67349389	      8.19626193	    -14.43171352	     -7.49999987	     29.72610092	      2.87165530	      2.11374794	     35.80926018	      0.62498949	      3.42250530	    -21.25999964	     -7.49999987	    -37.14892088	      2.72274019	     -2.65761005	     26.24531884	     -5.70274160	      9.61881581	    148.31284441	    111.52515150	     29.29865364	     -9.75820007	     20.34925270	    146.58954612	    100.75360760
